<svg width="69" height="68" viewBox="0 0 69 68" fill="none" xmlns="http://www.w3.org/2000/svg">
<path d="M62.2777 41.0586C62.2777 42.4128 59.5 43.3156 56.2592 43.767C54.1759 39.9302 50.0092 36.9961 45.1481 34.9649C45.6111 34.2878 46.074 33.8364 46.537 33.1593H48.3888C55.5648 32.9336 62.2777 37.2218 62.2777 41.0586ZM22.4629 32.9336H20.6111C13.4351 32.9336 6.72217 37.2218 6.72217 41.0586C6.72217 42.4128 9.49995 43.3156 12.7407 43.767C14.824 39.9302 18.9907 36.9961 23.8518 34.9649L22.4629 32.9336ZM34.4999 34.0001C39.5925 34.0001 43.7592 29.9376 43.7592 24.9723C43.7592 20.0071 39.5925 15.9446 34.4999 15.9446C29.4074 15.9446 25.2407 20.0071 25.2407 24.9723C25.2407 29.9376 29.4074 34.0001 34.4999 34.0001ZM47.6944 29.4862H48.3888C52.324 29.4862 55.3333 26.5522 55.3333 22.7154C55.3333 18.8786 52.324 15.9446 48.3888 15.9446C47.2314 15.9446 46.3055 16.1703 45.3796 16.6216C47.2314 18.8786 48.3888 21.8126 48.3888 24.9723C48.3888 26.5522 48.1574 28.1321 47.6944 29.4862ZM20.6111 29.4862H21.3055C20.8425 28.1321 20.6111 26.5522 20.6111 24.9723C20.6111 21.8126 21.7685 18.8786 23.6203 16.6216C22.6944 16.1703 21.7685 15.9446 20.6111 15.9446C16.6759 15.9446 13.6666 18.8786 13.6666 22.7154C13.6666 26.5522 16.6759 29.4862 20.6111 29.4862Z" fill="#264F66"/>
<path d="M30.667 38.5139L33.31 42.9257L31.4594 49.8176C31.2449 50.6168 30.1065 50.6042 29.9098 49.8004L27.497 39.9445C23.2367 40.6073 18.658 43.9897 16.2352 48.1422C14.3264 51.4138 16.6227 55.1167 20.1397 56.5228C21.6181 57.1138 23.1694 57.6676 24.4996 58.0001C26.2856 58.4466 30.4997 59.3335 34.4997 59.3335C38.4997 59.3335 42.3486 58.7709 45.833 58.0001C46.9842 57.7455 48.2844 57.2224 49.5095 56.6361C52.527 55.192 54.3547 51.8519 52.8784 48.85C50.6797 44.3789 46.0018 40.6446 41.5025 39.9445L39.0897 49.8004C38.893 50.6042 37.7546 50.6168 37.5401 49.8176L35.6895 42.9257L38.3325 38.5139H30.667Z" fill="#264F66"/>
</svg>
