<svg width="67" height="68" viewBox="0 0 67 68" fill="none" xmlns="http://www.w3.org/2000/svg">
<path d="M56.8332 17.6639V42.5394C56.8332 43.9531 56.2659 45.309 55.2561 46.3086C54.2462 47.3083 52.8766 47.8699 51.4486 47.8699H15.5511C14.123 47.8699 12.7534 47.3083 11.7436 46.3086C10.7338 45.309 10.1665 43.9531 10.1665 42.5394V17.6639C10.1724 16.252 10.7416 14.8996 11.7501 13.9012C12.7587 12.9028 14.1248 12.3393 15.5511 12.3335H51.4486C52.8748 12.3393 54.241 12.9028 55.2495 13.9012C56.2581 14.8996 56.8273 16.252 56.8332 17.6639ZM40.6793 51.4235H26.3203C25.8443 51.4235 25.3878 51.6107 25.0512 51.9439C24.7146 52.2771 24.5255 52.7291 24.5255 53.2003C24.5255 53.6716 24.7146 54.1235 25.0512 54.4567C25.3878 54.79 25.8443 54.9772 26.3203 54.9772H40.6793C41.1554 54.9772 41.6119 54.79 41.9485 54.4567C42.2851 54.1235 42.4742 53.6716 42.4742 53.2003C42.4742 52.7291 42.2851 52.2771 41.9485 51.9439C41.6119 51.6107 41.1554 51.4235 40.6793 51.4235Z" fill="#264F66"/>
<path d="M36.6376 35.5863L42.1893 30.0345L36.6376 24.4828L38.3272 22.7932L45.5686 30.0345L38.3272 37.2759L36.6376 35.5863ZM30.3617 35.5863L24.81 30.0345L30.3617 24.4828L28.672 22.7932L21.4307 30.0345L28.672 37.2759L30.3617 35.5863Z" fill="white"/>
</svg>
