<svg width="30" height="30" viewBox="0 0 30 30" fill="none" xmlns="http://www.w3.org/2000/svg">
<path d="M14.9967 10.9357C12.7588 10.9357 10.9326 12.7619 10.9326 14.9998C10.9326 17.2376 12.7588 19.064 14.9967 19.064C17.2346 19.064 19.0609 17.2376 19.0609 14.9998C19.0609 12.7619 17.2346 10.9357 14.9967 10.9357ZM27.1861 14.9998C27.1861 13.3168 27.2014 11.6491 27.1069 9.96909C27.0124 8.01784 26.5672 6.28608 25.1404 4.8592C23.7104 3.42928 21.9817 2.98719 20.0304 2.89267C18.3474 2.79816 16.6797 2.81341 14.9998 2.81341C13.3168 2.81341 11.6491 2.79816 9.96909 2.89267C8.01784 2.98719 6.28608 3.43233 4.8592 4.8592C3.42928 6.28912 2.98719 8.01784 2.89267 9.96909C2.79816 11.6521 2.81341 13.3198 2.81341 14.9998C2.81341 16.6797 2.79816 18.3505 2.89267 20.0304C2.98719 21.9817 3.43233 23.7135 4.8592 25.1404C6.28912 26.5702 8.01784 27.0124 9.96909 27.1069C11.6521 27.2014 13.3198 27.1861 14.9998 27.1861C16.6827 27.1861 18.3505 27.2014 20.0304 27.1069C21.9817 27.0124 23.7135 26.5672 25.1404 25.1404C26.5702 23.7104 27.0124 21.9817 27.1069 20.0304C27.2045 18.3505 27.1861 16.6827 27.1861 14.9998ZM14.9967 21.253C11.5362 21.253 8.74347 18.4602 8.74347 14.9998C8.74347 11.5393 11.5362 8.74652 14.9967 8.74652C18.4572 8.74652 21.2499 11.5393 21.2499 14.9998C21.2499 18.4602 18.4572 21.253 14.9967 21.253ZM21.5061 9.95081C20.6981 9.95081 20.0456 9.29837 20.0456 8.49042C20.0456 7.68246 20.6981 7.03 21.5061 7.03C22.314 7.03 22.9665 7.68246 22.9665 8.49042C22.9667 8.68227 22.9291 8.87228 22.8558 9.04957C22.7825 9.22687 22.6749 9.38794 22.5393 9.52359C22.4036 9.65925 22.2426 9.76687 22.0653 9.84018C21.8879 9.9135 21.698 9.95109 21.5061 9.95081Z" fill="#28303F"/>
</svg>
