<svg width="33" height="33" viewBox="0 0 33 33" fill="none" xmlns="http://www.w3.org/2000/svg">
<path fill-rule="evenodd" clip-rule="evenodd" d="M16.3098 28.6301L17.0098 29.7634C16.5804 30.0301 16.0364 30.0301 15.6084 29.7634L15.6044 29.7621L15.5964 29.7567L15.5698 29.7394C15.4294 29.6511 15.2912 29.5595 15.1551 29.4648C14.7733 29.202 14.3994 28.9281 14.0338 28.6434C12.8237 27.7035 11.6948 26.6634 10.6591 25.5341C8.2204 22.8661 5.64307 18.8901 5.64307 13.9634C5.64307 7.91142 10.4324 3.29675 16.3098 3.29675C22.1871 3.29675 26.9764 7.91142 26.9764 13.9634C26.9764 18.8901 24.3991 22.8661 21.9604 25.5341C20.9252 26.6633 19.7968 27.7034 18.5871 28.6434C18.1181 29.0073 17.6355 29.3533 17.1404 29.6808C17.1103 29.7005 17.0801 29.72 17.0498 29.7394L17.0231 29.7567L17.0151 29.7621H17.0124C17.0124 29.7621 17.0098 29.7648 16.3098 28.6301Z" fill="white"/>
<path fill-rule="evenodd" clip-rule="evenodd" d="M16.3098 28.6301L17.0098 29.7634C16.5804 30.0301 16.0364 30.0301 15.6084 29.7634L15.6044 29.7621L15.5964 29.7567L15.5698 29.7394C15.4294 29.6511 15.2912 29.5595 15.1551 29.4647C14.7733 29.202 14.3994 28.9281 14.0338 28.6434C12.8237 27.7035 11.6948 26.6633 10.6591 25.5341C8.2204 22.8661 5.64307 18.8901 5.64307 13.9634C5.64307 7.91141 10.4324 3.29675 16.3098 3.29675C22.1871 3.29675 26.9764 7.91141 26.9764 13.9634C26.9764 18.8901 24.3991 22.8661 21.9604 25.5341C20.9252 26.6633 19.7968 27.7034 18.5871 28.6434C18.1181 29.0073 17.6355 29.3533 17.1404 29.6807C17.1103 29.7005 17.0801 29.72 17.0498 29.7394L17.0231 29.7567L17.0151 29.7621H17.0124C17.0124 29.7621 17.0098 29.7647 16.3098 28.6301ZM12.3098 13.9634C12.3098 12.9025 12.7312 11.8851 13.4813 11.135C14.2315 10.3848 15.2489 9.96342 16.3098 9.96342C17.3706 9.96342 18.3881 10.3848 19.1382 11.135C19.8883 11.8851 20.3098 12.9025 20.3098 13.9634C20.3098 15.0243 19.8883 16.0417 19.1382 16.7918C18.3881 17.542 17.3706 17.9634 16.3098 17.9634C15.2489 17.9634 14.2315 17.542 13.4813 16.7918C12.7312 16.0417 12.3098 15.0243 12.3098 13.9634Z" fill="#28303F"/>
</svg>
