<svg width="33" height="33" viewBox="0 0 33 33" fill="none" xmlns="http://www.w3.org/2000/svg">
<path d="M29.6438 12.1073V22.9633C29.6438 24.0701 29.2204 25.135 28.4602 25.9396C27.7 26.7441 26.6608 27.2273 25.5558 27.2899L25.3104 27.2966H7.31039C6.20354 27.2967 5.13861 26.8732 4.33408 26.113C3.52954 25.3529 3.04638 24.3137 2.98372 23.2086L2.97705 22.9633V12.1073L15.8464 18.8486C15.9896 18.9236 16.1488 18.9628 16.3104 18.9628C16.472 18.9628 16.6313 18.9236 16.7744 18.8486L29.6438 12.1073ZM7.31039 5.96326H25.3104C26.3845 5.96313 27.4204 6.36192 28.2171 7.08229C29.0139 7.80265 29.5147 8.79324 29.6224 9.86193L16.3104 16.8353L2.99839 9.86193C3.10175 8.83568 3.56779 7.87995 4.31272 7.16655C5.05765 6.45314 6.03263 6.02884 7.06239 5.96993L7.31039 5.96326Z" fill="#28303F"/>
</svg>
